HIERARCHY
ROOT Hips
{
	OFFSET 0.000000 0.000000 0.000000
	CHANNELS 6 Xposition Yposition Zposition Zrotation Yrotation Xrotation 
	JOINT LeftUpLeg_virtual
	{
		OFFSET 0.000000 0.000000 0.000000
		CHANNELS 3 Zrotation Yrotation Xrotation
		JOINT LeftUpLeg
		{
			OFFSET 10.205400 -3.823500 0.155100
			CHANNELS 3 Zrotation Yrotation Xrotation
			JOINT LeftLeg
			{
				OFFSET 0.708757 -12.982077 0.567790
				CHANNELS 3 Zrotation Yrotation Xrotation
				JOINT LeftFoot
				{
					OFFSET -0.708756 -10.717838 -2.184338
					CHANNELS 3 Zrotation Yrotation Xrotation
					JOINT LeftToeBase
					{
						OFFSET 0.108149 -7.191104 7.560241
						CHANNELS 3 Zrotation Yrotation Xrotation
						End Site
						{
							OFFSET 0.000000 0.000000 0.000000
						}
					}
				}
			}
		}
	}
	JOINT RightUpLeg_virtual
	{
		OFFSET 0.000000 0.000000 0.000000
		CHANNELS 3 Zrotation Yrotation Xrotation
		JOINT RightUpLeg
		{
			OFFSET -10.205400 -3.823500 0.005500
			CHANNELS 3 Zrotation Yrotation Xrotation
			JOINT RightLeg
			{
				OFFSET -0.708756 -12.982134 0.610632
				CHANNELS 3 Zrotation Yrotation Xrotation
				JOINT RightFoot
				{
					OFFSET 0.708754 -10.717769 -1.945823
					CHANNELS 3 Zrotation Yrotation Xrotation
					JOINT RightToeBase
					{
						OFFSET -0.108140 -7.191069 7.372968
						CHANNELS 3 Zrotation Yrotation Xrotation
						End Site
						{
							OFFSET 0.000000 0.000000 0.000000
						}
					}
				}
			}
		}
	}
	JOINT Spine_virtual
	{
		OFFSET 0.000000 0.000000 0.000000
		CHANNELS 3 Zrotation Yrotation Xrotation
		JOINT Spine
		{
			OFFSET 0.000000 6.876099 0.125700
			CHANNELS 3 Zrotation Yrotation Xrotation
			JOINT Spine1
			{
				OFFSET 0.000000 8.022060 0.146608
				CHANNELS 3 Zrotation Yrotation Xrotation
				JOINT Spine2
				{
					OFFSET 0.000000 9.168068 0.167552
					CHANNELS 3 Zrotation Yrotation Xrotation
					JOINT Neck_virtual
					{
						OFFSET 0.000000 0.000000 0.000000
						CHANNELS 3 Zrotation Yrotation Xrotation
						JOINT Neck
						{
							OFFSET 0.000000 10.314075 0.188496
							CHANNELS 3 Zrotation Yrotation Xrotation
							JOINT Head
							{
								OFFSET 0.000000 7.643700 -2.377400
								CHANNELS 3 Zrotation Yrotation Xrotation
								End Site
								{
									OFFSET 0.000000 0.000000 0.000000
								}
							}
						}
					}
					JOINT LeftShoulder_virtual
					{
						OFFSET 0.000000 0.000000 0.000000
						CHANNELS 3 Zrotation Yrotation Xrotation
						JOINT LeftShoulder
						{
							OFFSET 4.392200 8.824978 0.174984
							CHANNELS 3 Zrotation Yrotation Xrotation
							JOINT LeftArm
							{
								OFFSET 8.771219 -2.981674 -0.026999
								CHANNELS 3 Zrotation Yrotation Xrotation
								JOINT LeftForeArm
								{
									OFFSET 8.512804 0.000000 -0.000000
									CHANNELS 3 Zrotation Yrotation Xrotation
									JOINT LeftHand
									{
										OFFSET 18.484802 0.000000 -0.000000
										CHANNELS 3 Zrotation Yrotation Xrotation
										End Site
										{
											OFFSET 0.000000 0.000000 0.000000
										}
									}
								}
							}
						}
					}
					JOINT RightShoulder_virtual
					{
						OFFSET 0.000000 0.000000 0.000000
						CHANNELS 3 Zrotation Yrotation Xrotation
						JOINT RightShoulder
						{
							OFFSET -4.392200 8.824993 0.141379
							CHANNELS 3 Zrotation Yrotation Xrotation
							JOINT RightArm
							{
								OFFSET -8.771282 -2.981682 -0.094208
								CHANNELS 3 Zrotation Yrotation Xrotation
								JOINT RightForeArm
								{
									OFFSET -8.494598 0.000000 0.000000
									CHANNELS 3 Zrotation Yrotation Xrotation
									JOINT RightHand
									{
										OFFSET -18.483803 0.000000 0.000001
										CHANNELS 3 Zrotation Yrotation Xrotation
										End Site
										{
											OFFSET 0.000000 0.000000 0.000000
										}
									}
								}
							}
						}
					}
				}
			}
		}
	}
}
MOTION
Frames: 7
Frame Time: 0.033333
5.288461 37.085724 -2.500651 -179.904642 -36.004311 179.798842 -0.754685 -1.171289 13.746525 8.992032 -1.578030 -25.902172 -0.299689 2.160677 20.297304 -3.098441 -2.455080 11.621477 0.000000 0.000000 0.000000 4.031368 -1.074989 13.443561 6.491172 -3.215632 -18.606713 -2.872503 0.763996 17.932295 0.061000 1.444359 5.449826 0.000000 0.000000 0.000000 2.392616 1.000498 3.965081 4.183298 -1.670524 -12.375486 -1.660328 -4.032020 15.274373 -0.039178 -0.126398 -0.031408 -1.795185 -2.138453 16.785550 -7.145581 -2.981005 23.552085 0.000000 0.000000 0.000000 -0.248281 -1.463875 13.203079 -9.860396 -7.435960 2.689084 -49.787462 12.493914 20.000257 -3.092252 -49.819246 6.416874 0.000000 0.000000 0.000000 -3.970224 -0.339047 13.095483 25.920472 4.584665 1.447995 53.993086 -11.878953 5.994137 -6.651671 38.146924 -5.370693 0.000000 0.000000 0.000000 
5.260352 37.069813 -2.612679 -179.893276 -35.175440 179.667115 -0.841550 -0.922901 13.541779 9.103128 -2.719621 -25.927386 -1.190797 1.181205 18.135629 -4.239739 -3.356518 10.699807 0.000000 0.000000 0.000000 3.835405 -0.986952 13.667084 6.570543 -2.975558 -18.304127 -2.642511 0.793936 17.264780 0.023333 1.656163 5.763826 0.000000 0.000000 0.000000 2.233056 1.154383 4.060444 4.166282 -1.832880 -12.258127 -1.599478 -4.028015 15.235512 0.007931 -0.077849 -0.028185 -1.745841 -2.112694 16.850123 -7.085745 -3.077610 23.667275 0.000000 0.000000 0.000000 -0.228258 -1.510238 13.125930 -9.674491 -7.496324 2.535755 -49.786034 12.436502 19.968823 -3.074959 -49.804995 6.288477 0.000000 0.000000 0.000000 -3.924415 -0.360569 12.939967 25.943314 4.377430 1.270418 54.142039 -11.727664 6.301720 -6.553245 38.636464 -5.390130 0.000000 0.000000 0.000000 
5.233396 37.055119 -2.692819 179.944476 -34.268002 179.607447 -1.084139 -0.738215 13.342707 9.055495 -3.536982 -25.775500 -1.688224 0.639484 16.948952 -4.765537 -3.652964 10.301700 0.000000 0.000000 0.000000 3.505239 -0.763585 13.766591 6.658525 -2.674670 -17.969137 -2.552671 0.892437 16.755210 0.057031 1.896200 6.106650 0.000000 0.000000 0.000000 1.958355 1.440560 4.147275 4.000514 -2.037913 -12.022986 -1.606853 -4.077907 15.227306 -0.009002 -0.263885 -0.131743 -1.611759 -2.154787 16.677857 -6.943336 -3.007433 23.466133 0.000000 0.000000 0.000000 -0.113094 -1.458068 12.971958 -9.494439 -7.377327 2.445405 -49.859227 12.383868 19.988152 -2.954209 -49.801044 6.192333 0.000000 0.000000 0.000000 -3.817222 -0.305591 12.897697 25.974156 4.343426 0.978064 54.295281 -11.474720 6.769743 -6.547947 39.292818 -5.446308 0.000000 0.000000 0.000000 
5.189097 37.043594 -2.731813 179.867090 -33.189535 179.409426 -1.242406 -0.668532 12.983705 8.961113 -4.093631 -25.772952 -2.076159 0.369062 16.352649 -5.101828 -3.709085 10.003236 0.000000 0.000000 0.000000 3.359558 -0.549483 13.808215 6.531691 -2.020404 -17.709632 -2.634138 0.887193 16.660744 0.178128 2.152283 6.168825 0.000000 0.000000 0.000000 1.742170 1.417863 4.283962 3.804303 -2.086421 -11.776497 -1.581324 -3.935482 15.292698 0.081108 -0.095714 -0.072231 -1.619667 -2.097876 16.500207 -6.974953 -3.170424 23.435694 0.000000 0.000000 0.000000 -0.063068 -1.462742 12.894168 -9.365703 -7.583369 2.247069 -49.918847 12.210312 19.891767 -2.808578 -49.639906 5.929369 0.000000 0.000000 0.000000 -3.789575 -0.255021 12.744777 25.991955 4.337154 0.792046 54.505002 -11.116036 7.191498 -6.539174 40.096076 -5.539434 0.000000 0.000000 0.000000 
5.127757 37.032047 -2.748023 179.850424 -32.298216 179.512876 -1.255563 -0.468812 12.943507 8.936845 -4.185337 -25.478226 -1.935006 0.367386 16.494436 -5.077781 -3.436646 9.824071 0.000000 0.000000 0.000000 3.196233 -0.426005 13.697993 6.518357 -1.475696 -17.671185 -2.750828 1.115485 16.453910 0.229485 2.244693 6.380845 0.000000 0.000000 0.000000 1.566646 1.624472 4.218118 3.660873 -2.370285 -11.663738 -1.559305 -3.951356 15.246277 -0.012855 -0.110509 -0.062034 -1.523051 -2.061487 16.413267 -6.890455 -2.988466 23.340903 0.000000 0.000000 0.000000 -0.077791 -1.426424 12.850174 -9.107990 -7.650862 2.102682 -49.869793 12.076014 19.869012 -2.824256 -49.598863 5.823740 0.000000 0.000000 0.000000 -3.692953 -0.261547 12.703686 25.898172 4.268819 0.389726 54.711072 -10.771587 7.655151 -6.443878 41.099939 -5.469347 0.000000 0.000000 0.000000 
5.035451 37.022186 -2.733979 179.853702 -31.380915 179.563720 -1.321643 -0.289763 12.947441 8.847603 -4.260611 -25.376917 -1.868267 0.493925 16.997201 -5.001385 -3.140573 9.559502 0.000000 0.000000 0.000000 3.173820 -0.306846 13.536879 6.201967 -0.453703 -17.738485 -3.047213 1.130869 16.707064 0.449102 2.380764 6.331183 0.000000 0.000000 0.000000 1.422027 1.541115 4.217497 3.465141 -2.268084 -11.602408 -1.542930 -3.947885 15.192994 0.046718 -0.128555 -0.068612 -1.512975 -2.061261 16.436148 -6.968009 -3.257756 23.399752 0.000000 0.000000 0.000000 0.003239 -1.459858 12.816152 -9.010608 -7.718006 1.980462 -50.057524 11.979231 19.671551 -2.771499 -49.715007 5.706067 0.000000 0.000000 0.000000 -3.634771 -0.282972 12.640150 25.705960 4.309302 0.215368 54.855534 -10.345650 8.212861 -6.497927 42.026936 -5.561335 0.000000 0.000000 0.000000 
4.913585 37.016937 -2.705665 179.886050 -30.480839 179.665503 -1.399666 -0.171671 12.991898 8.764436 -4.304166 -25.488292 -1.687401 0.652713 17.780910 -4.803770 -2.823948 9.146565 0.000000 0.000000 0.000000 3.174443 -0.263601 13.365501 5.866015 0.542407 -17.876656 -3.426463 1.267466 16.903183 0.660013 2.382768 6.323720 0.000000 0.000000 0.000000 1.315597 1.579386 4.078886 3.316864 -2.254138 -11.516566 -1.503737 -3.936040 15.181002 0.033021 -0.133102 -0.051964 -1.443540 -2.110259 16.337490 -6.929270 -3.333748 23.405600 0.000000 0.000000 0.000000 -0.061964 -1.492186 12.819194 -8.747469 -7.833751 1.799791 -50.176936 12.000679 19.479606 -2.781742 -49.800774 5.640661 0.000000 0.000000 0.000000 -3.564362 -0.333090 12.532641 25.394790 4.289083 0.052554 54.993118 -10.034458 8.903041 -6.537910 42.881512 -5.642519 0.000000 0.000000 0.000000 
